# xmcd
#
# Track frame offsets:
# 150
# 14863
# 29077
# 46362
# 62469
# 80149
# 96054
# 109678
# 126536
# 139756
# 153442
# 168717
# 185643
# 198797
# 214743
#
# Disc length: 3054 seconds
#
#
# Revision: 2
# Processed by: cddbd v1.5.2PL0 Copyright (c) Steve Scherf et al.
# Submitted via: FreeRIP 2.942 
#
DISCID=df0bec0f
DTITLE=Rick and Renner (2006) - Bom de Dança
DYEAR=2006
DGENRE=Sertanejo
TTITLE0=Pra Dá Um Picote
TTITLE1=Pizeiro
TTITLE2=Berrando Que Nem Boi
TTITLE3=Fujona
TTITLE4=Se Apertar Ela Dá
TTITLE5=Quem Chorou Fui Eu
TTITLE6=Calundu
TTITLE7=Eu e o Sabiá
TTITLE8=Só Coizá
TTITLE9=Cê tá Querendo o Quê?
TTITLE10=Tem Alguem Aí?
TTITLE11=Uma Foto Sua
TTITLE12=Na Vara
TTITLE13=Aqui Não Paixão
TTITLE14=Mulherada
EXTD=neldvd@hotmail.com YEAR: 2006
EXTT0=
EXTT1=
EXTT2=
EXTT3=
EXTT4=
EXTT5=
EXTT6=
EXTT7=
EXTT8=
EXTT9=
EXTT10=
EXTT11=
EXTT12=
EXTT13=
EXTT14=
PLAYORDER=
